<svg width="44" height="32" viewBox="0 0 44 32" fill="none" xmlns="http://www.w3.org/2000/svg">
<g clip-path="url(#clip0_6017_11847)">
<path d="M3.4837 32H10.3055V15.5152L0.560059 8.24243V29.0909C0.560059 30.7006 1.87082 32 3.4837 32Z" fill="#4285F4"/>
<path d="M33.6946 32H40.5164C42.1341 32 43.44 30.6958 43.44 29.0909V8.24243L33.6946 15.5152" fill="#34A853"/>
<path d="M33.6946 2.9091V15.5152L43.44 8.24244V4.36365C43.44 0.766073 39.3128 -1.28484 36.4233 0.87274" fill="#FBBC04"/>
<path d="M10.3055 15.5152V2.90912L22.0001 11.6364L33.6946 2.90912V15.5152L22.0001 24.2425" fill="#EA4335"/>
<path d="M0.560059 4.36365V8.24244L10.3055 15.5152V2.9091L7.57679 0.87274C4.68239 -1.28484 0.560059 0.766073 0.560059 4.36365Z" fill="#C5221F"/>
</g>
<defs>
<clipPath id="clip0_6017_11847">
<rect width="42.88" height="32" fill="white" transform="translate(0.560059)"/>
</clipPath>
</defs>
</svg>
