<svg width="102" height="28" viewBox="0 0 102 28" fill="none" xmlns="http://www.w3.org/2000/svg">
<path d="M0 4C0 2.89543 0.895431 2 2 2H12C18.6274 2 24 7.37258 24 14C24 20.6274 18.6274 26 12 26H2C0.89543 26 0 25.1046 0 24V4Z" fill="#1F2937"/>
<path fill-rule="evenodd" clip-rule="evenodd" d="M2.19862 26L9.27037 14.2005L1.96118 2.00037C1.97407 2.00012 1.987 2 1.99995 2H9.88559L13.9483 9.20975L17.3865 3.274C19.4957 4.3353 21.2489 6.00043 22.419 8.04241L18.7296 14.2005L22.3008 20.1592C21.0959 22.1701 19.3188 23.7988 17.1945 24.8205L14 19.316L10.1209 26H2.19862Z" fill="#3B82F6"/>
<path d="M31.8588 5.92545L35.4353 13.6067L39.0118 5.92545H42.8588L37.2235 16.6375V22.7686H33.6471V16.6375L28 5.92545H31.8588Z" fill="#3B82F6"/>
<path d="M50.2824 19.946V14.3702C50.2824 13.9692 50.2157 13.626 50.0824 13.3406C49.949 13.0476 49.7412 12.8201 49.4588 12.6581C49.1843 12.4961 48.8274 12.4152 48.3882 12.4152C48.0118 12.4152 47.6863 12.4807 47.4118 12.6118C47.1373 12.7352 46.9255 12.9165 46.7765 13.1555C46.6275 13.3869 46.5529 13.6607 46.5529 13.9769H43.1647C43.1647 13.4447 43.2902 12.9396 43.5412 12.4614C43.7922 11.9833 44.1569 11.563 44.6353 11.2005C45.1137 10.8303 45.6824 10.5411 46.3412 10.3329C47.0078 10.1247 47.7529 10.0206 48.5765 10.0206C49.5647 10.0206 50.4431 10.1825 51.2118 10.5064C51.9804 10.8303 52.5843 11.3162 53.0235 11.964C53.4706 12.6118 53.6941 13.4216 53.6941 14.3933V19.7494C53.6941 20.4357 53.7373 20.9987 53.8235 21.4383C53.9098 21.8702 54.0353 22.2481 54.2 22.572V22.7686H50.7765C50.6118 22.4293 50.4863 22.0051 50.4 21.4961C50.3216 20.9794 50.2824 20.4627 50.2824 19.946ZM50.7294 15.1452L50.7529 17.0308H48.8588C48.4118 17.0308 48.0235 17.081 47.6941 17.1812C47.3647 17.2815 47.0941 17.4242 46.8824 17.6093C46.6706 17.7866 46.5137 17.9949 46.4118 18.2339C46.3176 18.473 46.2706 18.7352 46.2706 19.0206C46.2706 19.3059 46.3373 19.5643 46.4706 19.7956C46.6039 20.0193 46.7961 20.1967 47.0471 20.3278C47.298 20.4512 47.5922 20.5129 47.9294 20.5129C48.4392 20.5129 48.8824 20.4126 49.2588 20.2121C49.6353 20.0116 49.9255 19.7648 50.1294 19.4717C50.3412 19.1787 50.451 18.901 50.4588 18.6388L51.3529 20.0501C51.2275 20.3663 51.0549 20.6941 50.8353 21.0334C50.6235 21.3727 50.3529 21.6928 50.0235 21.9936C49.6941 22.2866 49.298 22.5296 48.8353 22.7224C48.3725 22.9075 47.8235 23 47.1882 23C46.3804 23 45.6471 22.8419 44.9882 22.5257C44.3373 22.2018 43.8196 21.7584 43.4353 21.1954C43.0588 20.6247 42.8706 19.9769 42.8706 19.2519C42.8706 18.5964 42.9961 18.0141 43.2471 17.5051C43.498 16.9961 43.8667 16.5681 44.3529 16.2211C44.8471 15.8663 45.4627 15.6003 46.2 15.4229C46.9373 15.2378 47.7922 15.1452 48.7647 15.1452H50.7294Z" fill="#3B82F6"/>
<path d="M63.1882 16.7648H58.8235V14.0578H63.1882C63.8627 14.0578 64.4118 13.9499 64.8353 13.7339C65.2588 13.5103 65.5686 13.2018 65.7647 12.8085C65.9608 12.4152 66.0588 11.9717 66.0588 11.4781C66.0588 10.9769 65.9608 10.5103 65.7647 10.0784C65.5686 9.64653 65.2588 9.29949 64.8353 9.03727C64.4118 8.77506 63.8627 8.64396 63.1882 8.64396H60.0471V22.7686H56.5176V5.92545H63.1882C64.5294 5.92545 65.6784 6.16452 66.6353 6.64267C67.6 7.11311 68.3373 7.76478 68.8471 8.59769C69.3569 9.43059 69.6118 10.383 69.6118 11.455C69.6118 12.5424 69.3569 13.4833 68.8471 14.2776C68.3373 15.072 67.6 15.6851 66.6353 16.117C65.6784 16.5488 64.5294 16.7648 63.1882 16.7648Z" fill="#1F2937"/>
<path d="M75.4118 5V22.7686H72.0118V5H75.4118Z" fill="#1F2937"/>
<path d="M84.0706 23C83.0824 23 82.1961 22.8458 81.4118 22.5373C80.6274 22.2211 79.9608 21.7853 79.4118 21.2301C78.8706 20.6748 78.4549 20.0308 78.1647 19.2982C77.8745 18.5578 77.7294 17.7712 77.7294 16.9383V16.4756C77.7294 15.527 77.8667 14.6594 78.1412 13.8728C78.4157 13.0861 78.8078 12.4036 79.3176 11.8252C79.8353 11.2468 80.4627 10.8033 81.2 10.4949C81.9373 10.1787 82.7686 10.0206 83.6941 10.0206C84.5961 10.0206 85.3961 10.1671 86.0941 10.4602C86.7922 10.7532 87.3765 11.1697 87.8471 11.7095C88.3255 12.2494 88.6863 12.8972 88.9294 13.653C89.1725 14.401 89.2941 15.2339 89.2941 16.1517V17.5398H79.1765V15.3188H85.9647V15.0643C85.9647 14.6015 85.8784 14.1889 85.7059 13.8265C85.5412 13.4563 85.2902 13.1632 84.9529 12.9473C84.6157 12.7314 84.1843 12.6234 83.6588 12.6234C83.2118 12.6234 82.8274 12.7198 82.5059 12.9126C82.1843 13.1054 81.9216 13.3753 81.7176 13.7224C81.5216 14.0694 81.3725 14.4781 81.2706 14.9486C81.1765 15.4113 81.1294 15.9203 81.1294 16.4756V16.9383C81.1294 17.4396 81.2 17.9023 81.3412 18.3265C81.4902 18.7506 81.698 19.117 81.9647 19.4254C82.2392 19.7339 82.5686 19.973 82.9529 20.1427C83.3451 20.3123 83.7882 20.3972 84.2824 20.3972C84.8941 20.3972 85.4627 20.2815 85.9882 20.0501C86.5216 19.8111 86.9804 19.4524 87.3647 18.9743L89.0118 20.7326C88.7451 21.1105 88.3804 21.473 87.9176 21.8201C87.4627 22.1671 86.9137 22.4524 86.2706 22.6761C85.6274 22.892 84.8941 23 84.0706 23Z" fill="#1F2937"/>
<path d="M93.9529 10.2519L96.0588 14.0578L98.2235 10.2519H101.835L98.2353 16.3715L102 22.7686H98.3765L96.0824 18.7429L93.7882 22.7686H90.1647L93.9294 16.3715L90.3294 10.2519H93.9529Z" fill="#1F2937"/>
</svg>
