<svg width="33" height="32" viewBox="0 0 33 32" fill="none" xmlns="http://www.w3.org/2000/svg">
<g clip-path="url(#clip0_6017_11838)">
<mask id="mask0_6017_11838" style="mask-type:luminance" maskUnits="userSpaceOnUse" x="0" y="0" width="34" height="33">
<path d="M33.1633 0H0.16333V32.32H33.1633V0Z" fill="white"/>
</mask>
<g mask="url(#mask0_6017_11838)">
<path d="M0.16333 15.5136C0.16333 8.20042 0.16333 4.54384 2.48305 2.27191C4.80277 0 8.53629 0 16.0033 0H17.3233C24.7904 0 28.5239 0 30.8436 2.27191C33.1633 4.54384 33.1633 8.20042 33.1633 15.5136V16.8064C33.1633 24.1196 33.1633 27.7762 30.8436 30.0481C28.5239 32.32 24.7904 32.32 17.3233 32.32H16.0033C8.53629 32.32 4.80277 32.32 2.48305 30.0481C0.16333 27.7762 0.16333 24.1196 0.16333 16.8064V15.5136Z" fill="#0077FF"/>
<path d="M17.7222 23.2839C10.2009 23.2839 5.91094 18.2339 5.73218 9.83075H9.49969C9.62344 15.9985 12.4009 18.611 14.6009 19.1497V9.83075H18.1485V15.15C20.321 14.9211 22.6032 12.4971 23.3732 9.83075H26.9208C26.3296 13.1166 23.8546 15.5406 22.0946 16.5371C23.8546 17.3451 26.6735 19.4594 27.746 23.2839H23.8408C23.0021 20.7253 20.9122 18.7457 18.1485 18.4763V23.2839H17.7222Z" fill="white"/>
</g>
</g>
<defs>
<clipPath id="clip0_6017_11838">
<rect width="33" height="32" fill="white"/>
</clipPath>
</defs>
</svg>
